# xmcd CD database file
#
# Track frame offsets:
#	150
#	44762
#	88887
#	130100
#	145950
#	192925
#	209250
#	228887
#	241562
#
# Disc length: 3721 seconds
#
# Revision: 2
# Processed by: cddbd v1.5.2PL0 Copyright (c) Steve Scherf et al.
# Submitted via: CDex 1.70beta2
#
DISCID=7a0e8709
DTITLE=Mike Rowland - The magical Elfin Collection
DYEAR=1989
DGENRE=New Age
TTITLE0=The Fairy Ring (3)
TTITLE1=Solace (2)
TTITLE2=Silver Wings (2)
TTITLE3=Silver Wings (3)
TTITLE4=Titania (1)
TTITLE5=Titania (5)
TTITLE6=The Brighter Side (1)
TTITLE7=The Brighter Side (6)
TTITLE8=And So To Dream (1)
EXTD=YEAR: 1989
EXTT0=
EXTT1=
EXTT2=
EXTT3=
EXTT4=
EXTT5=
EXTT6=
EXTT7=
EXTT8=
PLAYORDER=
